<?xml version="1.0" encoding="UTF-8"?>
<svg width="34px" height="22px" viewBox="0 0 34 22" version="1.1" xmlns="http://www.w3.org/2000/svg" xmlns:xlink="http://www.w3.org/1999/xlink">
    <!-- Generator: sketchtool 51.3 (57544) - http://www.bohemiancoding.com/sketch -->
    <title>C849FD96-1FFB-4E75-8D7A-63D3BEE69202</title>
    <desc>Created with sketchtool.</desc>
    <defs></defs>
    <g id="Desktop" stroke="none" stroke-width="1" fill="none" fill-rule="evenodd">
        <g id="Collection-V2-(With-top-links-on-banner)" transform="translate(-1241.000000, -449.000000)" fill-rule="nonzero" stroke="#000000" stroke-width="0.5">
            <g id="Group-3" transform="translate(1241.000000, 449.000000)">
                <rect id="Rectangle-27" x="0.25" y="0.25" width="4.35714286" height="4.2826087"></rect>
                <rect id="Rectangle-27" x="6.07857143" y="0.25" width="4.35714286" height="4.2826087"></rect>
                <rect id="Rectangle-27" x="11.9071429" y="0.25" width="4.35714286" height="4.2826087"></rect>
                <rect id="Rectangle-27" x="0.25" y="5.98913043" width="4.35714286" height="4.2826087"></rect>
                <rect id="Rectangle-27" x="6.07857143" y="5.98913043" width="4.35714286" height="4.2826087"></rect>
                <rect id="Rectangle-27" x="11.9071429" y="5.98913043" width="4.35714286" height="4.2826087"></rect>
                <rect id="Rectangle-27" x="17.7357143" y="0.25" width="4.35714286" height="4.2826087"></rect>
                <rect id="Rectangle-27" x="23.5642857" y="0.25" width="4.35714286" height="4.2826087"></rect>
                <rect id="Rectangle-27" x="29.3928571" y="0.25" width="4.35714286" height="4.2826087"></rect>
                <rect id="Rectangle-27" x="17.7357143" y="5.98913043" width="4.35714286" height="4.2826087"></rect>
                <rect id="Rectangle-27" x="23.5642857" y="5.98913043" width="4.35714286" height="4.2826087"></rect>
                <rect id="Rectangle-27" x="29.3928571" y="5.98913043" width="4.35714286" height="4.2826087"></rect>
                <rect id="Rectangle-27" x="0.25" y="11.7282609" width="4.35714286" height="4.2826087"></rect>
                <rect id="Rectangle-27" x="6.07857143" y="11.7282609" width="4.35714286" height="4.2826087"></rect>
                <rect id="Rectangle-27" x="11.9071429" y="11.7282609" width="4.35714286" height="4.2826087"></rect>
                <rect id="Rectangle-27" x="0.25" y="17.4673913" width="4.35714286" height="4.2826087"></rect>
                <rect id="Rectangle-27" x="6.07857143" y="17.4673913" width="4.35714286" height="4.2826087"></rect>
                <rect id="Rectangle-27" x="11.9071429" y="17.4673913" width="4.35714286" height="4.2826087"></rect>
                <rect id="Rectangle-27" x="17.7357143" y="11.7282609" width="4.35714286" height="4.2826087"></rect>
                <rect id="Rectangle-27" x="23.5642857" y="11.7282609" width="4.35714286" height="4.2826087"></rect>
                <rect id="Rectangle-27" x="29.3928571" y="11.7282609" width="4.35714286" height="4.2826087"></rect>
                <rect id="Rectangle-27" x="17.7357143" y="17.4673913" width="4.35714286" height="4.2826087"></rect>
                <rect id="Rectangle-27" x="23.5642857" y="17.4673913" width="4.35714286" height="4.2826087"></rect>
                <rect id="Rectangle-27" x="29.3928571" y="17.4673913" width="4.35714286" height="4.2826087"></rect>
            </g>
        </g>
    </g>
</svg>