<?xml version="1.0" encoding="UTF-8"?>
<svg width="34px" height="22px" viewBox="0 0 34 22" version="1.1" xmlns="http://www.w3.org/2000/svg" xmlns:xlink="http://www.w3.org/1999/xlink">
    <!-- Generator: Sketch 51.3 (57544) - http://www.bohemiancoding.com/sketch -->
    <title>Group 3</title>
    <desc>Created with Sketch.</desc>
    <defs></defs>
    <g id="Desktop" stroke="none" stroke-width="1" fill="none" fill-rule="evenodd">
        <g id="Collection-V2-(With-top-links-on-banner)" transform="translate(-1241.000000, -449.000000)" fill="#E3D6D8" fill-rule="nonzero">
            <g id="Group-3" transform="translate(1241.000000, 449.000000)">
                <rect id="Rectangle-27" x="0" y="0" width="4.85714286" height="4.7826087"></rect>
                <rect id="Rectangle-27" x="5.82857143" y="0" width="4.85714286" height="4.7826087"></rect>
                <rect id="Rectangle-27" x="11.6571429" y="0" width="4.85714286" height="4.7826087"></rect>
                <rect id="Rectangle-27" x="0" y="5.73913043" width="4.85714286" height="4.7826087"></rect>
                <rect id="Rectangle-27" x="5.82857143" y="5.73913043" width="4.85714286" height="4.7826087"></rect>
                <rect id="Rectangle-27" x="11.6571429" y="5.73913043" width="4.85714286" height="4.7826087"></rect>
                <rect id="Rectangle-27" x="17.4857143" y="0" width="4.85714286" height="4.7826087"></rect>
                <rect id="Rectangle-27" x="23.3142857" y="0" width="4.85714286" height="4.7826087"></rect>
                <rect id="Rectangle-27" x="29.1428571" y="0" width="4.85714286" height="4.7826087"></rect>
                <rect id="Rectangle-27" x="17.4857143" y="5.73913043" width="4.85714286" height="4.7826087"></rect>
                <rect id="Rectangle-27" x="23.3142857" y="5.73913043" width="4.85714286" height="4.7826087"></rect>
                <rect id="Rectangle-27" x="29.1428571" y="5.73913043" width="4.85714286" height="4.7826087"></rect>
                <rect id="Rectangle-27" x="0" y="11.4782609" width="4.85714286" height="4.7826087"></rect>
                <rect id="Rectangle-27" x="5.82857143" y="11.4782609" width="4.85714286" height="4.7826087"></rect>
                <rect id="Rectangle-27" x="11.6571429" y="11.4782609" width="4.85714286" height="4.7826087"></rect>
                <rect id="Rectangle-27" x="0" y="17.2173913" width="4.85714286" height="4.7826087"></rect>
                <rect id="Rectangle-27" x="5.82857143" y="17.2173913" width="4.85714286" height="4.7826087"></rect>
                <rect id="Rectangle-27" x="11.6571429" y="17.2173913" width="4.85714286" height="4.7826087"></rect>
                <rect id="Rectangle-27" x="17.4857143" y="11.4782609" width="4.85714286" height="4.7826087"></rect>
                <rect id="Rectangle-27" x="23.3142857" y="11.4782609" width="4.85714286" height="4.7826087"></rect>
                <rect id="Rectangle-27" x="29.1428571" y="11.4782609" width="4.85714286" height="4.7826087"></rect>
                <rect id="Rectangle-27" x="17.4857143" y="17.2173913" width="4.85714286" height="4.7826087"></rect>
                <rect id="Rectangle-27" x="23.3142857" y="17.2173913" width="4.85714286" height="4.7826087"></rect>
                <rect id="Rectangle-27" x="29.1428571" y="17.2173913" width="4.85714286" height="4.7826087"></rect>
            </g>
        </g>
    </g>
</svg>